<?xml version="1.0" standalone="no"?>
<!DOCTYPE svg PUBLIC "-//W3C//DTD SVG 20010904//EN"
 "http://www.w3.org/TR/2001/REC-SVG-20010904/DTD/svg10.dtd">
<svg version="1.0" xmlns="http://www.w3.org/2000/svg"
 width="1300.000000pt" height="848.000000pt" viewBox="0 0 1300.000000 848.000000"
 preserveAspectRatio="xMidYMid meet">
<metadata>
Created by potrace 1.16, written by Peter Selinger 2001-2019
</metadata>
<g transform="translate(0.000000,848.000000) scale(0.100000,-0.100000)"
fill="current" stroke="current" stroke-width="200">
<path d="M3070 8469 c-19 -5 -183 -13 -365 -19 -181 -5 -351 -14 -377 -20 -71
-14 -154 -40 -204 -61 -24 -11 -45 -19 -46 -18 -5 4 -183 -91 -213 -113 -115
-88 -158 -195 -180 -448 -7 -72 -9 -77 -41 -98 -18 -12 -36 -22 -39 -22 -12 0
-114 -82 -119 -96 -3 -8 -10 -13 -15 -10 -9 6 -102 -64 -171 -128 -19 -18 -38
-32 -41 -32 -14 2 -167 -139 -162 -147 3 -6 2 -7 -4 -4 -13 8 -76 -57 -66 -68
5 -4 3 -5 -3 -2 -6 4 -21 -2 -32 -12 -17 -14 -19 -20 -9 -31 9 -10 9 -11 0 -6
-16 9 -94 -54 -88 -71 2 -7 -2 -10 -9 -7 -17 6 -54 -35 -39 -44 8 -5 7 -11 -2
-19 -11 -10 -15 -10 -18 0 -3 8 -10 5 -20 -8 -9 -11 -50 -55 -91 -99 -42 -43
-76 -85 -76 -92 0 -8 -5 -14 -11 -14 -5 0 -7 -5 -4 -10 4 -6 1 -9 -6 -8 -6 2
-47 -44 -90 -102 -43 -58 -82 -109 -87 -115 -33 -41 -90 -134 -85 -139 4 -3 2
-6 -3 -6 -14 0 -46 -58 -39 -70 4 -6 3 -9 -2 -8 -4 2 -9 -1 -10 -6 -1 -5 -6
-12 -11 -15 -9 -6 -92 -148 -92 -158 0 -2 -12 -29 -26 -58 -14 -30 -22 -60
-18 -66 5 -8 3 -9 -6 -4 -10 6 -12 3 -8 -13 4 -12 3 -20 -2 -17 -10 6 -22 -24
-14 -36 3 -5 1 -9 -4 -9 -5 0 -12 -10 -15 -22 -3 -13 -12 -42 -21 -64 -58
-157 -95 -458 -77 -615 13 -106 70 -352 83 -357 4 -2 6 -7 4 -11 -12 -18 94
-309 164 -451 64 -129 71 -141 80 -135 6 3 7 -1 4 -9 -3 -9 -1 -16 5 -16 6 0
10 -3 9 -7 -2 -7 25 -57 75 -138 7 -11 26 -43 44 -72 33 -53 152 -177 259
-269 130 -113 139 -119 127 -86 -5 13 -4 15 8 7 8 -6 33 -24 56 -39 24 -16 43
-33 43 -39 0 -5 -7 -4 -15 3 -8 6 -19 10 -25 8 -16 -5 92 -78 141 -95 49 -16
125 -58 155 -85 33 -30 291 -138 362 -152 9 -1 24 -6 32 -9 54 -21 227 -62
365 -87 372 -67 970 -78 1400 -25 66 8 167 20 225 26 58 6 110 15 115 19 10 8
38 -14 29 -22 -7 -7 55 -141 69 -150 7 -4 9 -8 4 -8 -18 0 91 -187 172 -295
57 -77 232 -252 294 -295 l48 -34 -51 -31 c-28 -17 -47 -35 -43 -40 5 -4 1 -6
-8 -3 -14 6 -48 -16 -129 -81 -76 -61 -99 -84 -93 -94 3 -5 1 -7 -5 -3 -12 7
-54 -42 -46 -55 3 -5 0 -8 -7 -7 -15 4 -69 -72 -66 -92 1 -8 -3 -14 -9 -13
-12 2 -85 -122 -87 -149 -1 -9 -4 -15 -7 -13 -3 2 -14 -19 -23 -46 -20 -55
-59 -82 -132 -91 -52 -7 -166 -58 -158 -71 3 -6 1 -7 -4 -4 -6 4 -36 -11 -67
-33 -96 -67 -127 -105 -103 -129 8 -8 8 -11 -1 -11 -7 0 -12 -12 -12 -26 0
-14 4 -23 9 -20 4 3 6 -6 3 -21 -4 -19 -2 -24 8 -18 9 5 11 4 6 -3 -10 -16 15
-93 27 -85 6 3 7 1 3 -5 -9 -15 44 -123 57 -115 6 3 7 1 4 -4 -8 -13 31 -65
44 -58 5 4 6 -1 3 -9 -5 -13 10 -27 41 -38 6 -1 9 -6 8 -9 -3 -8 86 -56 112
-61 11 -1 33 -15 49 -30 15 -15 34 -25 40 -21 6 3 8 3 4 -1 -3 -4 5 -32 18
-61 14 -29 36 -93 50 -142 35 -122 74 -205 91 -199 8 3 11 2 8 -4 -3 -5 5 -16
17 -23 27 -17 186 -53 271 -61 66 -7 68 -4 38 81 -21 63 -17 64 63 29 53 -24
112 -41 119 -34 2 2 11 -3 20 -10 26 -22 89 -23 112 -1 19 17 23 17 43 4 11
-9 19 -21 16 -28 -2 -7 11 -21 30 -31 19 -10 45 -29 57 -42 12 -13 26 -24 30
-24 5 0 13 19 19 43 14 51 33 67 80 67 45 0 141 -32 180 -60 l30 -21 0 21 c0
12 -4 19 -9 16 -18 -12 -21 29 -4 61 30 55 56 59 180 25 59 -17 144 -44 188
-61 87 -34 227 -53 240 -32 3 6 10 9 15 6 5 -3 27 3 48 14 39 20 40 20 136 1
63 -13 134 -19 209 -19 81 1 124 -4 150 -15 41 -17 43 -14 27 46 -11 39 -70
86 -91 72 -8 -4 -9 -3 -5 4 4 7 3 12 -3 12 -5 0 -20 17 -32 38 -38 62 -91 127
-101 124 -5 -1 -7 2 -3 7 3 6 -10 32 -29 58 -31 43 -43 51 -103 70 -37 12
-122 33 -188 47 -66 13 -129 28 -139 32 -12 5 -17 4 -13 -3 3 -5 0 -10 -8 -10
-7 0 -12 8 -10 18 2 9 -6 26 -17 36 -34 31 -82 144 -68 160 4 4 13 30 19 57 7
26 25 78 41 113 17 36 27 70 23 76 -3 5 -1 7 5 3 6 -3 13 3 17 14 4 11 22 37
41 58 69 75 146 181 138 193 -4 7 -3 10 2 7 5 -4 24 17 43 45 19 29 43 64 53
80 10 15 16 33 12 39 -4 7 -3 8 4 4 7 -4 16 2 22 16 5 13 26 45 45 72 19 26
32 52 29 57 -3 5 -1 9 4 9 15 0 64 89 56 102 -4 7 -3 8 4 4 11 -7 56 54 52 70
-1 4 3 10 8 13 27 17 97 145 155 284 14 34 18 34 203 1 81 -14 156 -23 166
-21 10 3 16 2 13 -3 -2 -4 23 -11 58 -14 135 -15 158 -30 182 -113 4 -15 12
-20 31 -18 23 2 24 1 11 -18 -12 -18 -12 -25 2 -51 9 -17 20 -34 24 -37 5 -3
8 -10 8 -15 -2 -21 11 -44 21 -38 6 4 8 2 4 -4 -3 -6 24 -73 62 -149 152 -310
256 -577 272 -698 4 -33 17 -127 29 -210 12 -82 26 -208 32 -280 13 -164 42
-320 73 -387 17 -41 33 -58 64 -76 23 -13 47 -20 54 -16 6 4 8 3 4 -4 -10 -16
174 -72 274 -83 47 -5 148 -13 225 -17 106 -7 152 -14 187 -30 52 -23 131 -27
213 -11 39 8 66 6 120 -7 105 -25 145 -47 189 -103 21 -28 42 -51 47 -51 8 0
15 31 21 90 3 22 8 25 43 25 33 1 47 -6 82 -38 24 -22 44 -36 44 -31 1 5 3 18
6 29 24 115 8 175 -58 221 -34 23 -43 25 -62 15 -19 -10 -33 -7 -97 23 -85 40
-105 56 -145 109 -25 34 -82 73 -110 76 -5 1 -10 7 -10 14 -1 6 -6 11 -13 9
-7 -1 -12 2 -12 6 0 11 -60 45 -67 38 -3 -3 -12 2 -20 10 -9 8 -22 13 -30 10
-8 -3 -11 -2 -8 4 7 12 -74 52 -89 43 -6 -3 -8 -3 -4 2 4 4 -15 22 -43 40 -49
31 -109 111 -140 187 -6 16 -16 25 -22 21 -6 -3 -7 -1 -3 5 4 6 0 22 -9 35
-14 22 -14 51 -4 273 10 239 8 506 -6 607 -7 46 8 132 39 220 l12 35 39 -37
c22 -20 78 -78 124 -129 46 -50 88 -89 93 -86 5 3 8 2 7 -3 -4 -22 2 -35 15
-30 9 4 17 -2 21 -15 9 -26 154 -184 167 -180 5 1 7 -1 4 -6 -3 -5 14 -31 38
-58 62 -72 116 -149 168 -239 62 -108 132 -248 130 -257 -1 -5 3 -8 9 -8 5 0
7 -5 4 -10 -8 -13 192 -619 211 -641 33 -37 162 -85 324 -120 87 -19 130 -23
250 -21 80 2 170 6 200 10 36 5 70 3 99 -5 24 -7 47 -10 52 -7 5 3 9 1 9 -4 0
-14 138 -37 220 -36 52 0 95 7 140 23 57 20 77 23 155 17 50 -3 112 -13 139
-21 26 -8 53 -12 59 -8 6 3 7 1 3 -5 -4 -7 -2 -12 3 -12 19 0 12 26 -18 66
-71 94 -129 143 -152 128 -7 -4 -9 -3 -6 3 7 10 -33 33 -58 33 -7 0 -55 32
-106 71 -96 72 -233 144 -251 132 -7 -3 -8 -1 -4 5 4 7 2 12 -3 12 -6 0 -40
14 -76 31 -36 17 -70 27 -76 23 -7 -4 -9 -3 -6 3 3 5 -8 17 -26 26 -97 51
-142 94 -186 180 -8 15 -18 27 -22 27 -5 0 -6 6 -3 14 3 8 1 17 -5 21 -6 3
-11 16 -11 28 0 12 -12 58 -26 102 -14 44 -27 87 -29 96 -11 50 -30 106 -42
120 -7 9 -11 18 -8 20 6 7 -124 427 -180 584 -27 75 -44 70 243 71 206 0 267
3 307 16 28 9 63 19 78 23 25 5 27 8 15 22 -11 14 -11 16 2 8 21 -13 252 -6
269 8 12 9 13 9 7 -1 -6 -9 23 -12 128 -12 130 0 136 -1 136 -20 0 -11 -22
-42 -50 -68 -27 -26 -50 -55 -50 -64 0 -25 65 -31 273 -25 140 4 212 12 315
32 l133 27 132 -17 c73 -9 182 -23 242 -31 265 -33 841 9 993 73 20 9 103 35
185 58 81 23 163 53 182 66 45 31 58 88 58 259 l1 125 -41 66 c-50 81 -115
172 -246 347 -87 116 -101 131 -116 120 -14 -12 -14 -11 -3 4 15 19 22 9 -109
168 -34 41 -66 74 -71 72 -5 -1 -7 2 -4 7 9 13 -54 82 -67 74 -6 -3 -7 -1 -3
5 7 12 -48 71 -100 107 -70 49 -191 115 -209 115 -12 0 -26 5 -33 12 -6 6 -26
13 -43 15 -21 2 -46 17 -73 43 -22 22 -55 46 -73 52 -18 7 -33 17 -33 24 0 16
-48 46 -61 39 -5 -4 -8 -2 -7 5 3 10 -44 45 -217 162 -176 118 -366 189 -430
160 -31 -15 -32 -42 -4 -172 11 -52 23 -107 26 -122 4 -22 2 -28 -11 -28 -9 0
-16 5 -16 10 0 6 -4 10 -10 10 -5 0 -33 11 -62 24 -29 13 -64 27 -77 31 -13 4
-50 20 -83 35 l-58 28 -4 288 c-5 324 -23 513 -47 499 -5 -4 -6 1 -3 9 12 32
-63 136 -98 136 -11 0 -17 4 -14 8 3 5 -8 9 -24 10 -29 1 -52 -25 -265 -302
-22 -29 -50 -65 -63 -80 l-22 -29 -91 89 c-50 49 -97 88 -105 88 -8 -1 -11 2
-8 8 3 5 -8 21 -26 36 -26 23 -32 37 -36 82 -13 139 -37 277 -67 379 -18 62
-36 108 -40 104 -5 -4 -5 0 -2 9 4 9 0 30 -8 45 -9 15 -30 60 -48 98 -18 39
-35 72 -38 75 -3 3 -7 12 -9 20 -6 25 -85 160 -95 160 -4 0 -6 4 -2 9 9 15
-36 41 -54 31 -9 -4 -54 -45 -101 -89 -47 -45 -87 -81 -90 -81 -3 0 -28 -22
-55 -48 -87 -82 -76 -80 -146 -25 -34 26 -79 63 -100 81 -21 19 -46 35 -56 36
-10 2 -18 7 -18 13 0 13 -59 63 -74 63 -6 0 -11 5 -11 11 0 5 -5 7 -12 3 -6
-4 -8 -3 -5 3 3 5 -21 29 -53 52 -41 30 -64 55 -76 84 -10 23 -17 45 -16 49 3
14 -128 399 -180 527 -54 134 -143 311 -186 370 -42 58 -137 146 -179 166 -51
24 -84 23 -116 -5 -29 -25 -53 -113 -44 -160 9 -40 -18 -150 -53 -227 -18 -37
-33 -72 -34 -78 -1 -5 -4 -14 -8 -20 -33 -54 -47 -88 -41 -98 5 -9 3 -9 -8 -1
-8 6 -81 22 -164 34 -114 17 -155 27 -172 42 -12 11 -26 17 -33 13 -6 -4 -9
-1 -8 7 2 7 -3 12 -10 10 -8 -1 -11 1 -8 6 3 5 -31 40 -75 78 -45 38 -104 91
-132 117 -70 65 -93 70 -129 26 -24 -28 -28 -40 -23 -69 3 -19 7 -57 9 -84 l3
-49 -61 6 c-449 44 -1397 41 -1453 -5 -7 -5 -17 -7 -23 -3 -9 5 -83 -9 -260
-50 -87 -20 -211 -60 -205 -67 3 -3 -7 -5 -22 -5 -34 0 -244 -74 -237 -84 2
-4 -2 -7 -9 -6 -34 1 -48 -4 -41 -15 4 -7 3 -8 -4 -4 -17 10 -194 -66 -179
-77 8 -6 5 -7 -7 -3 -18 6 -58 -10 -206 -83 -71 -35 -78 -36 -108 -24 -18 7
-54 14 -80 16 l-47 2 -9 -72 c-7 -62 -12 -73 -28 -73 -10 0 -50 -16 -89 -36
-67 -33 -73 -35 -121 -25 -27 6 -54 9 -59 5 -5 -3 -9 0 -9 5 0 6 -3 10 -7 9
-5 0 -26 7 -47 16 -30 14 -45 15 -63 7 -29 -13 -29 -41 -3 -100 11 -24 19 -45
18 -47 -2 -1 -66 -32 -143 -68 l-140 -65 -80 14 c-44 8 -111 24 -149 35 -119
37 -153 6 -91 -84 20 -29 50 -68 66 -86 29 -31 30 -34 12 -44 -10 -5 -23 -11
-30 -12 -6 -1 -28 -7 -48 -14 -21 -7 -52 -9 -73 -5 l-37 7 30 -34 c19 -21 13
-17 -16 10 -46 43 -141 88 -161 76 -6 -4 -8 -3 -5 3 7 12 -86 35 -108 27 -8
-4 -15 -13 -15 -21 0 -29 23 -98 42 -125 11 -16 16 -28 12 -28 -4 0 1 -9 11
-20 10 -11 16 -22 14 -24 -2 -1 -21 -14 -41 -28 -21 -14 -35 -28 -31 -32 4 -4
0 -4 -10 0 -10 3 -17 1 -17 -5 0 -6 -3 -10 -7 -9 -17 3 -42 -15 -36 -26 3 -6
3 -8 -2 -4 -11 10 -106 -42 -98 -55 3 -5 1 -7 -5 -4 -5 4 -18 4 -27 1 -13 -6
-14 -9 -3 -16 10 -7 8 -8 -5 -4 -20 6 -107 -31 -107 -46 0 -5 -4 -7 -9 -4 -4
3 -49 -12 -100 -33 -50 -22 -104 -42 -121 -46 -17 -4 -28 -10 -26 -13 2 -4 -6
-7 -17 -8 -46 -2 -223 -57 -243 -75 -11 -10 -24 -19 -30 -19 -5 0 0 8 11 16
19 15 16 16 -40 9 -239 -27 -349 -24 -509 12 -37 8 -73 16 -80 17 -31 7 -167
71 -219 103 -20 13 -37 20 -37 16 0 -5 -4 -3 -8 3 -10 16 -174 144 -184 144
-4 0 -8 6 -8 14 0 8 -10 23 -23 33 -12 10 -28 31 -35 46 -7 17 -17 25 -24 21
-6 -4 -8 -3 -5 3 4 6 -3 37 -16 69 -18 50 -22 79 -21 189 0 116 4 142 32 240
17 61 48 148 67 195 36 86 106 231 115 240 3 3 27 43 54 90 108 188 305 463
493 688 57 67 100 122 95 122 -4 0 1 5 11 11 9 6 14 15 11 21 -4 6 -3 8 3 5
12 -7 36 16 28 26 -3 4 -2 5 1 2 6 -4 37 22 32 27 -1 2 26 31 60 66 35 34 61
66 58 70 -8 13 -8 13 354 32 307 17 500 51 570 100 14 10 83 45 153 78 109 52
138 71 194 127 43 43 63 70 59 81 -3 8 -2 13 2 10 19 -11 56 132 103 397 28
160 -26 311 -120 337 -41 11 -43 11 -91 -1z"/>
</g>
</svg>
