<?xml version="1.0" standalone="no"?>
<!DOCTYPE svg PUBLIC "-//W3C//DTD SVG 20010904//EN"
 "http://www.w3.org/TR/2001/REC-SVG-20010904/DTD/svg10.dtd">
<svg version="1.0" xmlns="http://www.w3.org/2000/svg"
 width="458.000000pt" height="185.000000pt" viewBox="0 0 458.000000 185.000000"
 preserveAspectRatio="xMidYMid meet">
<metadata>
Created by potrace 1.16, written by Peter Selinger 2001-2019
</metadata>
<g transform="translate(0.000000,185.000000) scale(0.100000,-0.100000)"
fill="current" stroke="current" stroke-width="50">
<path d="M3852 1831 c-69 -24 -131 -68 -282 -201 -69 -61 -145 -120 -168 -132
-63 -30 -171 -20 -407 37 -166 41 -208 47 -335 52 -175 7 -250 -2 -515 -63
-110 -25 -297 -65 -415 -90 -729 -152 -1084 -278 -1384 -492 -166 -119 -399
-382 -337 -382 5 0 42 26 82 59 288 228 623 359 1029 402 151 16 440 6 580
-20 169 -31 337 -69 376 -86 67 -28 204 -119 204 -137 0 -21 -57 -182 -82
-233 -12 -22 -30 -52 -41 -67 -18 -25 -19 -37 -14 -155 6 -145 31 -245 71
-282 36 -34 181 -51 246 -28 72 24 62 47 -35 78 -93 30 -128 59 -144 123 -27
109 -4 168 99 254 113 93 157 137 178 177 18 37 20 38 27 16 15 -47 9 -204 -9
-259 -21 -63 -20 -71 35 -227 28 -78 52 -130 70 -148 27 -27 29 -27 158 -27
74 0 131 4 131 9 0 5 10 11 21 13 31 4 49 35 29 48 -8 6 -24 12 -35 14 -11 2
-46 9 -78 14 -127 24 -204 134 -182 262 5 27 34 81 85 158 42 64 87 136 98
158 21 41 22 41 139 74 65 17 148 44 186 60 l67 28 0 -43 c0 -48 3 -51 119
-134 70 -50 125 -124 116 -158 -13 -53 82 -30 105 26 15 37 7 75 -25 116 l-23
31 24 27 c43 50 27 101 -52 173 l-56 50 16 31 c8 17 71 82 138 145 67 62 161
153 209 202 75 76 90 87 110 81 13 -4 92 -38 176 -76 160 -74 233 -92 266 -67
18 13 14 18 -52 66 -72 52 -99 91 -37 53 66 -41 63 -20 -9 60 -54 60 -68 89
-42 89 6 0 61 -20 122 -45 147 -60 175 -58 175 13 0 57 -28 98 -151 222 -101
102 -124 120 -150 120 -16 0 -39 -5 -50 -11 -15 -8 -40 -4 -107 15 -104 31
-194 33 -270 7z"/>
</g>
</svg>
