<?xml version="1.0" standalone="no"?>
<!DOCTYPE svg PUBLIC "-//W3C//DTD SVG 20010904//EN"
 "http://www.w3.org/TR/2001/REC-SVG-20010904/DTD/svg10.dtd">
<svg version="1.0" xmlns="http://www.w3.org/2000/svg"
 width="366.000000pt" height="148.000000pt" viewBox="0 0 366.000000 148.000000"
 preserveAspectRatio="xMidYMid meet">
<metadata>
Created by potrace 1.16, written by Peter Selinger 2001-2019
</metadata>
<g transform="translate(0.000000,148.000000) scale(0.100000,-0.100000)"
fill="current" stroke="current" stroke-width="50">
<path d="M365 1455 c-63 -21 -72 -22 -92 -9 -33 21 -69 8 -94 -33 -12 -19 -45
-53 -72 -75 -82 -64 -118 -127 -102 -177 10 -32 29 -31 116 10 138 64 173 49
85 -37 -51 -49 -58 -74 -12 -39 11 8 27 15 35 15 21 0 -34 -56 -81 -82 -46
-26 -40 -38 18 -38 35 0 73 14 175 65 94 47 137 63 154 59 13 -3 43 -30 67
-60 24 -30 90 -94 147 -142 94 -79 151 -144 151 -172 0 -6 -20 -25 -45 -42
-66 -47 -80 -116 -28 -147 17 -10 17 -12 1 -24 -31 -25 -47 -66 -37 -97 12
-32 50 -56 76 -45 10 4 13 9 7 12 -7 2 -9 14 -6 26 10 38 55 86 126 133 68 46
68 46 63 85 -3 21 -3 39 -1 39 3 0 27 -11 54 -25 28 -14 96 -36 152 -50 57
-13 104 -29 106 -35 10 -30 56 -106 103 -170 38 -52 53 -83 57 -115 7 -65 -5
-111 -41 -152 -37 -42 -81 -63 -135 -63 -21 0 -47 -6 -57 -14 -16 -12 -17 -15
-4 -28 8 -8 20 -13 27 -10 6 2 12 -1 12 -7 0 -7 36 -11 104 -11 127 0 125 -2
181 160 l38 112 -17 47 c-17 48 -19 109 -8 196 l7 50 29 -52 c21 -39 50 -67
114 -114 109 -81 132 -133 102 -240 -14 -49 -46 -75 -109 -88 -66 -14 -86 -27
-68 -46 6 -7 17 -11 23 -8 7 2 15 0 18 -5 9 -15 159 -2 178 16 34 29 60 122
65 227 5 100 5 100 -25 138 -25 31 -92 207 -92 241 0 3 17 15 38 26 20 11 55
33 77 49 26 20 65 36 110 45 39 8 111 24 160 35 436 97 919 19 1260 -203 47
-31 105 -74 130 -97 117 -108 26 39 -96 156 -238 227 -603 376 -1199 490 -74
15 -218 46 -320 70 -220 53 -295 65 -416 65 -105 0 -157 -8 -354 -58 -173 -43
-239 -46 -294 -14 -21 12 -80 61 -131 108 -112 103 -164 139 -229 159 -69 21
-120 18 -201 -10z"/>
</g>
</svg>
