<?xml version="1.0" standalone="no"?>
<!DOCTYPE svg PUBLIC "-//W3C//DTD SVG 20010904//EN"
 "http://www.w3.org/TR/2001/REC-SVG-20010904/DTD/svg10.dtd">
<svg version="1.0" xmlns="http://www.w3.org/2000/svg"
 width="512.000000pt" height="512.000000pt" viewBox="0 0 512.000000 512.000000"
 preserveAspectRatio="xMidYMid meet">
<metadata>
Created by potrace 1.16, written by Peter Selinger 2001-2019
</metadata>
<g transform="translate(0.000000,512.000000) scale(0.100000,-0.100000)"
fill="current" stroke="current" stroke-width="50">
<path d="M4842 3659 c-72 -14 -335 -148 -573 -291 -442 -266 -760 -440 -911
-497 -174 -66 -257 -84 -362 -79 -84 5 -99 9 -201 57 -300 143 -442 168 -572
102 -21 -10 -90 -36 -153 -57 -106 -36 -124 -39 -225 -38 -124 0 -182 14 -370
91 -157 64 -206 90 -525 283 -157 95 -339 199 -405 231 -148 72 -335 128 -458
136 -118 8 -113 -9 11 -30 128 -21 203 -46 347 -117 157 -76 371 -220 625
-419 274 -215 391 -299 538 -385 397 -230 426 -249 458 -299 19 -29 43 -89 59
-151 l27 -103 -25 -89 c-14 -49 -42 -134 -62 -189 -24 -70 -34 -114 -33 -145
3 -43 5 -45 45 -60 24 -9 48 -21 55 -28 16 -16 28 -15 28 3 0 14 3 14 30 0 27
-14 30 -14 30 0 0 11 6 14 25 9 25 -6 35 9 15 21 -6 4 -23 25 -38 48 -23 36
-26 52 -25 112 1 62 6 78 54 170 45 87 52 108 52 158 0 31 2 57 3 57 1 0 10
-7 18 -16 21 -21 22 -214 1 -299 -21 -88 -18 -155 7 -155 5 0 24 -11 42 -25
40 -30 46 -31 46 -5 0 17 3 18 26 10 33 -13 34 -13 34 6 0 11 6 15 20 11 36
-9 32 12 -10 49 -39 35 -40 38 -40 101 0 65 24 203 41 235 6 12 21 18 44 18
l35 0 0 -100 c0 -124 8 -145 98 -252 101 -122 104 -127 100 -195 -3 -55 -2
-58 22 -61 13 -2 33 -10 44 -18 27 -18 36 -18 36 2 0 16 11 16 54 -2 16 -6 18
-4 14 12 -4 17 -1 20 23 16 35 -5 36 4 7 35 -13 14 -17 23 -9 23 8 0 11 6 7
16 -5 13 -1 14 24 9 37 -8 39 6 5 33 -28 22 -37 66 -56 289 -12 128 -11 133
11 188 13 31 34 73 48 93 17 26 26 55 30 100 4 53 8 65 26 72 12 5 71 27 131
51 142 54 322 146 436 220 50 33 231 162 402 288 172 125 357 260 412 299 60
43 176 110 290 168 l190 95 49 -16 c27 -8 58 -23 68 -32 16 -14 22 -15 36 -5
9 7 25 15 35 18 24 9 22 56 -4 80 -12 10 -39 49 -60 86 l-40 68 -57 -1 c-31
-1 -76 -5 -100 -10z"/>
</g>
</svg>
